<svg width="1080" height="1080" viewBox="0 0 1080 1080" fill="none" xmlns="http://www.w3.org/2000/svg">
<rect width="1080" height="1080" rx="300" fill="#404145"/>
<path d="M767.992 584.712C773.331 590.051 776 601.042 776 617.687V619.571C776 627.108 775.686 632.761 775.058 636.53C774.744 639.985 773.174 644.224 770.347 649.249C765.636 658.357 753.702 662.91 734.545 662.91C715.702 662.91 703.14 659.927 696.859 653.96C690.892 647.993 687.909 636.687 687.909 620.042V618.158C687.909 610.935 688.066 605.439 688.38 601.67C689.008 597.902 690.578 593.662 693.091 588.951C697.801 579.53 709.578 574.819 728.421 574.819C747.578 574.819 760.769 578.117 767.992 584.712Z" fill="#1DBF73"/>
<path d="M384.051 448.582C398.811 426.285 416.555 415.136 437.283 415.136C469.316 415.136 493.184 428.797 508.886 456.119C512.341 451.409 516.423 446.541 521.134 441.516C526.159 436.177 534.01 430.524 544.688 424.557C555.366 418.276 566.358 415.136 577.663 415.136C602.787 415.136 623.829 424.871 640.788 444.343C657.746 463.5 666.226 495.376 666.226 539.971V622.409C666.226 629.633 665.912 635.128 665.284 638.897C664.97 642.352 663.556 646.434 661.044 651.145C656.961 659.624 644.87 663.864 624.771 663.864C604.986 663.864 592.895 659.467 588.498 650.674C586.3 645.963 584.887 641.881 584.258 638.426C583.944 634.657 583.787 629.162 583.787 621.938V539.5C583.787 512.178 574.052 498.516 554.581 498.516C543.589 498.516 536.052 502.128 531.969 509.351C528.2 516.574 526.316 526.781 526.316 539.971V622.409C526.316 629.947 526.002 635.443 525.374 638.897C525.06 642.352 523.647 646.434 521.134 651.145C516.738 659.624 504.49 663.864 484.39 663.864C464.605 663.864 452.514 659.467 448.117 650.674C445.919 645.963 444.506 641.881 443.878 638.426C443.564 634.657 443.407 629.162 443.407 621.938V539.5C443.407 512.178 433.671 498.516 414.2 498.516C395.357 498.516 385.935 512.178 385.935 539.5V622.881C385.935 630.104 385.621 635.6 384.993 639.368C384.679 642.823 383.266 646.905 380.753 651.616C376.043 659.782 363.795 663.864 344.01 663.864C324.224 663.864 312.133 659.624 307.737 651.145C305.538 646.434 304.125 642.352 303.497 638.897C303.183 635.443 303.026 629.947 303.026 622.409V456.591C303.026 449.367 303.183 444.029 303.497 440.574C304.125 436.805 305.695 432.723 308.208 428.326C312.918 419.847 324.067 415.607 341.654 415.607C359.241 415.607 370.704 418.433 376.043 424.086C381.382 429.739 384.051 437.905 384.051 448.582Z" fill="white"/>
</svg>
