<svg width="64" height="64" viewBox="0 0 64 64" fill="none" xmlns="http://www.w3.org/2000/svg">
<path d="M60.1666 32C60.1666 31.1716 59.495 30.5 58.6666 30.5C57.8382 30.5 57.1666 31.1716 57.1666 32H60.1666ZM31.9999 6.83335C32.8283 6.83335 33.4999 6.16178 33.4999 5.33335C33.4999 4.50492 32.8283 3.83335 31.9999 3.83335V6.83335ZM22.5333 36.4333C22.0362 35.7706 21.096 35.6363 20.4333 36.1334C19.7705 36.6304 19.6362 37.5706 20.1333 38.2333L22.5333 36.4333ZM43.8666 38.2333C44.3636 37.5706 44.2293 36.6304 43.5666 36.1334C42.9038 35.6363 41.9636 35.7706 41.4666 36.4333L43.8666 38.2333ZM23.9999 22.5C23.1715 22.5 22.4999 23.1716 22.4999 24C22.4999 24.8284 23.1715 25.5 23.9999 25.5V22.5ZM24.0266 25.5C24.855 25.5 25.5266 24.8284 25.5266 24C25.5266 23.1716 24.855 22.5 24.0266 22.5V25.5ZM39.9999 22.5C39.1715 22.5 38.4999 23.1716 38.4999 24C38.4999 24.8284 39.1715 25.5 39.9999 25.5V22.5ZM40.0266 25.5C40.855 25.5 41.5266 24.8284 41.5266 24C41.5266 23.1716 40.855 22.5 40.0266 22.5V25.5ZM54.8333 2.66675C54.8333 1.83832 54.1617 1.16675 53.3333 1.16675C52.5048 1.16675 51.8333 1.83832 51.8333 2.66675H54.8333ZM51.8333 18.6667C51.8333 19.4952 52.5048 20.1667 53.3333 20.1667C54.1617 20.1667 54.8333 19.4952 54.8333 18.6667H51.8333ZM45.3333 9.16675C44.5048 9.16675 43.8333 9.83832 43.8333 10.6667C43.8333 11.4952 44.5048 12.1667 45.3333 12.1667V9.16675ZM61.3333 12.1667C62.1617 12.1667 62.8333 11.4952 62.8333 10.6667C62.8333 9.83832 62.1617 9.16675 61.3333 9.16675V12.1667ZM57.1666 32C57.1666 45.8992 45.8991 57.1667 31.9999 57.1667V60.1667C47.5559 60.1667 60.1666 47.556 60.1666 32H57.1666ZM31.9999 57.1667C18.1008 57.1667 6.83325 45.8992 6.83325 32H3.83325C3.83325 47.556 16.4439 60.1667 31.9999 60.1667V57.1667ZM6.83325 32C6.83325 18.1008 18.1008 6.83335 31.9999 6.83335V3.83335C16.4439 3.83335 3.83325 16.444 3.83325 32H6.83325ZM21.3333 37.3334C20.1333 38.2333 20.1336 38.2338 20.134 38.2343C20.1342 38.2345 20.1346 38.2351 20.1348 38.2355C20.1354 38.2363 20.1361 38.2371 20.1368 38.2381C20.1383 38.24 20.1399 38.2422 20.1419 38.2448C20.1458 38.2499 20.1507 38.2563 20.1565 38.2639C20.1683 38.2792 20.184 38.2994 20.2037 38.3243C20.2431 38.3741 20.2984 38.4425 20.3692 38.5268C20.5107 38.6954 20.7149 38.9285 20.9794 39.2045C21.5072 39.7552 22.2819 40.4841 23.2843 41.2131C25.2833 42.6669 28.2533 44.1667 31.9999 44.1667V41.1667C29.0799 41.1667 26.7165 39.9998 25.0488 38.7869C24.2179 38.1826 23.576 37.5781 23.1454 37.1288C22.9307 36.9048 22.7704 36.7213 22.6671 36.5982C22.6155 36.5367 22.5783 36.4906 22.5559 36.4622C22.5446 36.448 22.5371 36.4383 22.5333 36.4334C22.5314 36.4309 22.5305 36.4297 22.5305 36.4296C22.5305 36.4296 22.5307 36.4299 22.5312 36.4306C22.5314 36.4309 22.5317 36.4312 22.532 36.4317C22.5322 36.4319 22.5325 36.4324 22.5326 36.4325C22.5329 36.4329 22.5333 36.4333 21.3333 37.3334ZM31.9999 44.1667C35.7465 44.1667 38.7165 42.6669 40.7155 41.2131C41.7179 40.4841 42.4927 39.7552 43.0204 39.2045C43.2849 38.9285 43.4891 38.6954 43.6307 38.5268C43.7015 38.4425 43.7567 38.3741 43.7961 38.3243C43.8158 38.2994 43.8316 38.2792 43.8433 38.2639C43.8492 38.2563 43.8541 38.2499 43.858 38.2448C43.8599 38.2422 43.8616 38.24 43.863 38.2381C43.8637 38.2371 43.8644 38.2363 43.865 38.2355C43.8653 38.2351 43.8657 38.2345 43.8658 38.2343C43.8662 38.2338 43.8666 38.2333 42.6666 37.3334C41.4666 36.4333 41.4669 36.4329 41.4672 36.4325C41.4673 36.4324 41.4676 36.4319 41.4678 36.4317C41.4682 36.4312 41.4685 36.4309 41.4687 36.4306C41.4692 36.4299 41.4694 36.4296 41.4694 36.4296C41.4694 36.4297 41.4684 36.4309 41.4665 36.4334C41.4627 36.4383 41.4552 36.448 41.444 36.4622C41.4215 36.4906 41.3843 36.5367 41.3327 36.5982C41.2295 36.7213 41.0691 36.9048 40.8544 37.1288C40.4239 37.5781 39.7819 38.1826 38.951 38.7869C37.2833 39.9998 34.92 41.1667 31.9999 41.1667V44.1667ZM23.9999 25.5H24.0266V22.5H23.9999V25.5ZM39.9999 25.5H40.0266V22.5H39.9999V25.5ZM51.8333 2.66675V10.6667H54.8333V2.66675H51.8333ZM51.8333 10.6667V18.6667H54.8333V10.6667H51.8333ZM45.3333 12.1667H53.3333V9.16675H45.3333V12.1667ZM53.3333 12.1667H61.3333V9.16675H53.3333V12.1667Z" fill="#1DBF73"/>
</svg>
