<svg width="57" height="56" viewBox="0 0 57 56" fill="none" xmlns="http://www.w3.org/2000/svg">
<g clip-path="url(#clip0_6_36)">
<path d="M14.5056 16.184L17.4806 26.0983M30.5636 39.186L40.4826 42.161" stroke="#1DBF73" stroke-width="3" stroke-linecap="round" stroke-linejoin="round"/>
<path d="M27.9268 28.7397L41.3644 15.302" stroke="#1DBF73" stroke-width="3" stroke-linecap="round" stroke-linejoin="round"/>
<path d="M9.99976 12.8334C9.99976 13.293 10.0903 13.7481 10.2662 14.1728C10.4421 14.5974 10.6999 14.9832 11.0249 15.3082C11.3499 15.6333 11.7357 15.8911 12.1604 16.067C12.585 16.2428 13.0401 16.3334 13.4998 16.3334C13.9594 16.3334 14.4145 16.2428 14.8391 16.067C15.2638 15.8911 15.6496 15.6333 15.9746 15.3082C16.2996 14.9832 16.5574 14.5974 16.7333 14.1728C16.9092 13.7481 16.9998 13.293 16.9998 12.8334C16.9998 12.3737 16.9092 11.9186 16.7333 11.494C16.5574 11.0693 16.2996 10.6835 15.9746 10.3585C15.6496 10.0335 15.2638 9.77569 14.8391 9.5998C14.4145 9.4239 13.9594 9.33337 13.4998 9.33337C13.0401 9.33337 12.585 9.4239 12.1604 9.5998C11.7357 9.77569 11.3499 10.0335 11.0249 10.3585C10.6999 10.6835 10.4421 11.0693 10.2662 11.494C10.0903 11.9186 9.99976 12.3737 9.99976 12.8334Z" stroke="#1DBF73" stroke-width="3" stroke-linecap="round" stroke-linejoin="round"/>
<path d="M40.3333 12.8334C40.3333 13.7616 40.702 14.6519 41.3584 15.3082C42.0148 15.9646 42.905 16.3334 43.8333 16.3334C44.7615 16.3334 45.6517 15.9646 46.3081 15.3082C46.9645 14.6519 47.3333 13.7616 47.3333 12.8334C47.3333 11.9051 46.9645 11.0149 46.3081 10.3585C45.6517 9.70212 44.7615 9.33337 43.8333 9.33337C42.905 9.33337 42.0148 9.70212 41.3584 10.3585C40.702 11.0149 40.3333 11.9051 40.3333 12.8334Z" stroke="#1DBF73" stroke-width="3" stroke-linecap="round" stroke-linejoin="round"/>
<path d="M40.3333 43.1666C40.3333 44.0949 40.702 44.9851 41.3584 45.6415C42.0148 46.2979 42.905 46.6666 43.8333 46.6666C44.7615 46.6666 45.6517 46.2979 46.3081 45.6415C46.9645 44.9851 47.3333 44.0949 47.3333 43.1666C47.3333 42.2384 46.9645 41.3481 46.3081 40.6918C45.6517 40.0354 44.7615 39.6666 43.8333 39.6666C42.905 39.6666 42.0148 40.0354 41.3584 40.6918C40.702 41.3481 40.3333 42.2384 40.3333 43.1666Z" stroke="#1DBF73" stroke-width="3" stroke-linecap="round" stroke-linejoin="round"/>
<path d="M9.99976 36.1666C9.99976 38.9514 11.106 41.6221 13.0751 43.5912C15.0443 45.5604 17.715 46.6666 20.4998 46.6666C23.2845 46.6666 25.9552 45.5604 27.9244 43.5912C29.8935 41.6221 30.9998 38.9514 30.9998 36.1666C30.9998 33.3819 29.8935 30.7111 27.9244 28.742C25.9552 26.7729 23.2845 25.6666 20.4998 25.6666C17.715 25.6666 15.0443 26.7729 13.0751 28.742C11.106 30.7111 9.99976 33.3819 9.99976 36.1666Z" stroke="#1DBF73" stroke-width="3" stroke-linecap="round" stroke-linejoin="round"/>
</g>
<defs>
<clipPath id="clip0_6_36">
<rect width="56" height="56" fill="white" transform="translate(0.666504)"/>
</clipPath>
</defs>
</svg>
