<svg width="611" height="128" viewBox="0 0 611 128" fill="none" xmlns="http://www.w3.org/2000/svg">
<path d="M607.615 99.94C609.473 101.799 610.403 105.625 610.403 111.42V112.076C610.403 114.7 610.293 116.668 610.075 117.98C609.965 119.183 609.419 120.659 608.435 122.408C606.795 125.579 602.64 127.164 595.971 127.164C589.411 127.164 585.037 126.125 582.851 124.048C580.773 121.971 579.735 118.035 579.735 112.24V111.584C579.735 109.069 579.789 107.156 579.899 105.844C580.117 104.532 580.664 103.056 581.539 101.416C583.179 98.136 587.279 96.496 593.839 96.496C600.508 96.496 605.1 97.644 607.615 99.94Z" fill="#1DBF73"/>
<path d="M543.867 49.756C544.523 43.6334 548.842 40.572 556.823 40.572C561.087 40.572 564.258 40.9 566.335 41.556C568.413 42.212 569.834 43.36 570.599 45C571.474 46.64 571.966 48.116 572.075 49.428C572.294 50.6307 572.403 52.4894 572.403 55.004V112.404C572.403 114.919 572.294 116.832 572.075 118.144C571.966 119.347 571.529 120.768 570.763 122.408C569.233 125.251 565.461 126.672 559.447 126.672C553.543 126.672 549.553 125.961 547.475 124.54C545.507 123.009 544.359 120.823 544.031 117.98C539.986 123.775 533.207 126.672 523.695 126.672C514.293 126.672 505.546 122.353 497.455 113.716C489.365 105.079 485.319 95.0747 485.319 83.704C485.319 72.224 489.365 62.22 497.455 53.692C505.655 45.0547 514.621 40.736 524.351 40.736C528.069 40.736 531.458 41.392 534.519 42.704C537.581 44.016 539.713 45.2733 540.915 46.476C542.118 47.5693 543.102 48.6627 543.867 49.756ZM514.019 83.868C514.019 87.476 515.441 90.756 518.283 93.708C521.126 96.5507 524.57 97.972 528.615 97.972C532.661 97.972 535.995 96.496 538.619 93.544C541.353 90.592 542.719 87.3667 542.719 83.868C542.719 80.26 541.407 76.9254 538.783 73.864C536.269 70.8027 532.825 69.272 528.451 69.272C524.187 69.272 520.689 70.8027 517.955 73.864C515.331 76.9254 514.019 80.26 514.019 83.868Z" fill="#404145"/>
<path d="M479.783 41.5561C481.86 42.2121 483.555 43.3601 484.867 45.0001C486.288 46.5307 486.999 49.0454 486.999 52.5441C486.999 56.0427 485.96 59.8694 483.883 64.0241C481.806 68.1787 478.799 70.2561 474.863 70.2561C472.895 70.2561 470.982 69.8187 469.123 68.9441C467.374 68.0694 465.023 67.6321 462.071 67.6321C459.119 67.6321 456.331 68.6707 453.707 70.7481C451.192 72.8254 449.935 75.3401 449.935 78.2921V112.732C449.935 115.247 449.826 117.16 449.607 118.472C449.498 119.675 449.006 121.096 448.131 122.736C446.491 125.579 442.227 127 435.339 127C430.091 127 426.319 126.071 424.023 124.212C422.274 122.681 421.29 120.331 421.071 117.16C421.071 116.067 421.071 114.481 421.071 112.404V54.8401C421.071 52.3254 421.126 50.4667 421.235 49.2641C421.454 47.9521 421.946 46.5307 422.711 45.0001C424.242 42.0481 428.506 40.5721 435.503 40.5721C442.063 40.5721 446.163 41.8294 447.803 44.3441C449.006 46.0934 449.607 47.8974 449.607 49.7561C450.154 48.9907 450.919 48.0614 451.903 46.9681C452.996 45.8747 455.238 44.3987 458.627 42.5401C462.016 40.6814 464.968 39.7521 467.483 39.7521C470.107 39.7521 472.294 39.9161 474.043 40.2441C475.792 40.4627 477.706 40.9001 479.783 41.5561Z" fill="#404145"/>
<path d="M382.744 49.756C383.4 43.6334 387.718 40.572 395.7 40.572C399.964 40.572 403.134 40.9 405.212 41.556C407.289 42.212 408.71 43.36 409.476 45C410.35 46.64 410.842 48.116 410.952 49.428C411.17 50.6307 411.28 52.4894 411.28 55.004V112.404C411.28 114.919 411.17 116.832 410.952 118.144C410.842 119.347 410.405 120.768 409.64 122.408C408.109 125.251 404.337 126.672 398.324 126.672C392.42 126.672 388.429 125.961 386.352 124.54C384.384 123.009 383.236 120.823 382.908 117.98C378.862 123.775 372.084 126.672 362.572 126.672C353.169 126.672 344.422 122.353 336.332 113.716C328.241 105.079 324.196 95.0747 324.196 83.704C324.196 72.224 328.241 62.22 336.332 53.692C344.532 45.0547 353.497 40.736 363.228 40.736C366.945 40.736 370.334 41.392 373.396 42.704C376.457 44.016 378.589 45.2733 379.792 46.476C380.994 47.5693 381.978 48.6627 382.744 49.756ZM352.896 83.868C352.896 87.476 354.317 90.756 357.16 93.708C360.002 96.5507 363.446 97.972 367.492 97.972C371.537 97.972 374.872 96.496 377.496 93.544C380.229 90.592 381.596 87.3667 381.596 83.868C381.596 80.26 380.284 76.9254 377.66 73.864C375.145 70.8027 371.701 69.272 367.328 69.272C363.064 69.272 359.565 70.8027 356.832 73.864C354.208 76.9254 352.896 80.26 352.896 83.868Z" fill="#404145"/>
<path d="M278.527 40.9C289.46 40.9 298.535 45.0547 305.751 53.364C313.076 61.6734 316.739 71.8414 316.739 83.868V112.732C316.739 115.247 316.63 117.16 316.411 118.472C316.302 119.675 315.81 121.096 314.935 122.736C313.514 125.579 309.304 127 302.307 127C295.638 127 291.483 125.579 289.843 122.736C288.968 121.096 288.422 119.62 288.203 118.308C288.094 116.996 288.039 115.028 288.039 112.404V83.704C288.039 79.2214 286.782 75.7227 284.267 73.208C281.752 70.6934 278.527 69.436 274.591 69.436C270.764 69.436 267.375 70.6387 264.423 73.044C261.471 75.34 259.776 77.964 259.339 80.916V112.732C259.339 115.247 259.23 117.16 259.011 118.472C258.902 119.675 258.41 121.096 257.535 122.736C256.114 125.579 251.904 127 244.907 127C238.019 127 233.81 125.524 232.279 122.572C231.514 120.932 231.022 119.511 230.803 118.308C230.694 117.105 230.639 115.192 230.639 112.568V14.496C230.639 11.9814 230.694 10.1227 230.803 8.92003C231.022 7.60803 231.514 6.1867 232.279 4.65603C233.81 1.70403 238.074 0.228027 245.071 0.228027C251.959 0.228027 256.114 1.70403 257.535 4.65603C258.41 6.29603 258.902 7.77203 259.011 9.08403C259.23 10.2867 259.339 12.1454 259.339 14.66V50.904C264.806 44.2347 271.202 40.9 278.527 40.9Z" fill="#404145"/>
<path d="M192.312 49.756C192.968 43.6334 197.286 40.572 205.268 40.572C209.532 40.572 212.702 40.9 214.78 41.556C216.857 42.212 218.278 43.36 219.044 45C219.918 46.64 220.41 48.116 220.52 49.428C220.738 50.6307 220.848 52.4894 220.848 55.004V112.404C220.848 114.919 220.738 116.832 220.52 118.144C220.41 119.347 219.973 120.768 219.208 122.408C217.677 125.251 213.905 126.672 207.892 126.672C201.988 126.672 197.997 125.961 195.92 124.54C193.952 123.009 192.804 120.823 192.476 117.98C188.43 123.775 181.652 126.672 172.14 126.672C162.737 126.672 153.99 122.353 145.9 113.716C137.809 105.079 133.764 95.0747 133.764 83.704C133.764 72.224 137.809 62.22 145.9 53.692C154.1 45.0547 163.065 40.736 172.796 40.736C176.513 40.736 179.902 41.392 182.964 42.704C186.025 44.016 188.157 45.2733 189.36 46.476C190.562 47.5693 191.546 48.6627 192.312 49.756ZM162.464 83.868C162.464 87.476 163.885 90.756 166.728 93.708C169.57 96.5507 173.014 97.972 177.06 97.972C181.105 97.972 184.44 96.496 187.064 93.544C189.797 90.592 191.164 87.3667 191.164 83.868C191.164 80.26 189.852 76.9254 187.228 73.864C184.713 70.8027 181.269 69.272 176.896 69.272C172.632 69.272 169.133 70.8027 166.4 73.864C163.776 76.9254 162.464 80.26 162.464 83.868Z" fill="#404145"/>
<path d="M28.2154 52.0521C33.3541 44.2894 39.5314 40.4081 46.7474 40.4081C57.8994 40.4081 66.2088 45.1641 71.6755 54.6761C72.8781 53.0361 74.2995 51.3414 75.9395 49.5921C77.6888 47.7334 80.4221 45.7654 84.1395 43.6881C87.8568 41.5014 91.6835 40.4081 95.6195 40.4081C104.366 40.4081 111.691 43.7974 117.595 50.5761C123.499 57.2454 126.451 68.3427 126.451 83.8681V112.568C126.451 115.083 126.342 116.996 126.123 118.308C126.014 119.511 125.522 120.932 124.647 122.572C123.226 125.524 119.017 127 112.019 127C105.131 127 100.922 125.469 99.3915 122.408C98.6261 120.768 98.1341 119.347 97.9155 118.144C97.8061 116.832 97.7515 114.919 97.7515 112.404V83.7041C97.7515 74.1921 94.3621 69.4361 87.5835 69.4361C83.7568 69.4361 81.1328 70.6934 79.7115 73.2081C78.3995 75.7227 77.7434 79.2761 77.7434 83.8681V112.568C77.7434 115.192 77.6341 117.105 77.4155 118.308C77.3061 119.511 76.8141 120.932 75.9395 122.572C74.4088 125.524 70.1448 127 63.1474 127C56.2594 127 52.0501 125.469 50.5194 122.408C49.7541 120.768 49.2621 119.347 49.0434 118.144C48.9341 116.832 48.8794 114.919 48.8794 112.404V83.7041C48.8794 74.1921 45.4901 69.4361 38.7114 69.4361C32.1514 69.4361 28.8714 74.1921 28.8714 83.7041V112.732C28.8714 115.247 28.7621 117.16 28.5434 118.472C28.4341 119.675 27.9421 121.096 27.0674 122.736C25.4274 125.579 21.1634 127 14.2754 127C7.38745 127 3.17811 125.524 1.64745 122.572C0.882112 120.932 0.390113 119.511 0.171446 118.308C0.0621127 117.105 0.00744629 115.192 0.00744629 112.568V54.8401C0.00744629 52.3254 0.0621127 50.4667 0.171446 49.2641C0.390113 47.9521 0.936779 46.5307 1.81145 45.0001C3.45145 42.0481 7.33278 40.5721 13.4554 40.5721C19.5781 40.5721 23.5688 41.5561 25.4274 43.5241C27.2861 45.4921 28.2154 48.3347 28.2154 52.0521Z" fill="#404145"/>
</svg>
