<svg width="64" height="64" viewBox="0 0 64 64" fill="none" xmlns="http://www.w3.org/2000/svg">
<path d="M38.6667 14.6667L42.6667 18.6667M30.6667 22.6667L34.6667 26.6667M22.6667 30.6667L26.6667 34.6667M14.6667 38.6667L18.6667 42.6667M6.84171 46.842L17.1581 57.1583C17.6861 57.6863 17.9501 57.9503 18.2545 58.0493C18.5223 58.1363 18.8108 58.1363 19.0786 58.0493C19.383 57.9503 19.647 57.6863 20.175 57.1583L57.158 20.1753C57.6861 19.6473 57.9501 19.3833 58.049 19.0788C58.136 18.811 58.136 18.5226 58.049 18.2548C57.9501 17.9503 57.6861 17.6863 57.1581 17.1583L46.8417 6.84195C46.3137 6.31393 46.0497 6.04992 45.7452 5.951C45.4774 5.86399 45.189 5.86399 44.9212 5.951C44.6168 6.04992 44.3527 6.31393 43.8247 6.84195L6.84171 43.825C6.31369 44.353 6.04967 44.617 5.95076 44.9214C5.86375 45.1892 5.86375 45.4777 5.95076 45.7455C6.04967 46.0499 6.31368 46.3139 6.84171 46.842Z" stroke="#1DBF73" stroke-width="3" stroke-linecap="round" stroke-linejoin="round"/>
</svg>
