<svg width="65" height="64" viewBox="0 0 65 64" fill="none" xmlns="http://www.w3.org/2000/svg">
<path d="M43.6614 24.5354L19.6614 10.6954M8.38013 18.0287L31.6601 31.4954L54.9401 18.0287M31.6614 58.3486V31.4686M55.6614 42.1354V20.802C55.6604 19.8668 55.4135 18.9482 54.9455 18.1385C54.4774 17.3287 53.8047 16.6563 52.9947 16.1887L34.328 5.52203C33.5173 5.05393 32.5976 4.8075 31.6614 4.8075C30.7252 4.8075 29.8055 5.05393 28.9947 5.52203L10.328 16.1887C9.51808 16.6563 8.84532 17.3287 8.37727 18.1385C7.90922 18.9482 7.66234 19.8668 7.66138 20.802V42.1354C7.66234 43.0706 7.90922 43.9892 8.37727 44.7989C8.84532 45.6087 9.51808 46.2811 10.328 46.7487L28.9947 57.4154C29.8055 57.8835 30.7252 58.1299 31.6614 58.1299C32.5976 58.1299 33.5173 57.8835 34.328 57.4154L52.9947 46.7487C53.8047 46.2811 54.4774 45.6087 54.9455 44.7989C55.4135 43.9892 55.6604 43.0706 55.6614 42.1354Z" stroke="#1DBF73" stroke-width="3" stroke-linecap="round" stroke-linejoin="round"/>
</svg>
