<svg width="65" height="64" viewBox="0 0 65 64" fill="none" xmlns="http://www.w3.org/2000/svg">
<path d="M58.9998 32C58.9998 17.2724 47.0608 5.33337 32.3332 5.33337M58.9998 32H52.3332M58.9998 32C58.9998 36.8572 57.7012 41.4111 55.4323 45.3334M5.6665 32C5.6665 17.2724 17.6056 5.33337 32.3332 5.33337M5.6665 32H12.3332M5.6665 32C5.6665 36.8572 6.96509 41.4111 9.23403 45.3334M32.3332 5.33337V12M51.209 13.3334L32.3332 32.2092M13.4575 13.3334L18.0881 17.9639M9.23403 45.3334C13.8448 53.3041 22.4627 58.6667 32.3332 58.6667C42.2036 58.6667 50.8215 53.3041 55.4323 45.3334M9.23403 45.3334H55.4323" stroke="#1DBF73" stroke-width="3" stroke-linecap="round" stroke-linejoin="round"/>
</svg>
