<svg width="65" height="64" viewBox="0 0 65 64" fill="none" xmlns="http://www.w3.org/2000/svg">
<path d="M39.8649 16.8C39.3763 17.2985 39.1026 17.9686 39.1026 18.6667C39.1026 19.3647 39.3763 20.0348 39.8649 20.5333L44.1316 24.8C44.63 25.2886 45.3002 25.5623 45.9982 25.5623C46.6962 25.5623 47.3664 25.2886 47.8649 24.8L57.9182 14.7467C59.2591 17.7098 59.6651 21.0113 59.0821 24.211C58.4991 27.4108 56.9548 30.3569 54.655 32.6567C52.3552 34.9566 49.409 36.5009 46.2093 37.0839C43.0095 37.6669 39.7081 37.2609 36.7449 35.92L18.3182 54.3467C17.2574 55.4075 15.8185 56.0035 14.3182 56.0035C12.8179 56.0035 11.3791 55.4075 10.3182 54.3467C9.25737 53.2858 8.66138 51.8469 8.66138 50.3467C8.66138 48.8464 9.25737 47.4075 10.3182 46.3467L28.7449 27.92C27.404 24.9568 26.998 21.6554 27.581 18.4556C28.164 15.2558 29.7083 12.3097 32.0082 10.0099C34.308 7.71009 37.2541 6.16577 40.4538 5.58277C43.6536 4.99976 46.9551 5.40576 49.9182 6.74665L39.8916 16.7733L39.8649 16.8Z" stroke="#1DBF73" stroke-width="3" stroke-linecap="round" stroke-linejoin="round"/>
</svg>
